# xmcd
#
# Track frame offsets: 
#        150
#        14170
#        28915
#        46387
#        58747
#        75445
#        89642
#        103287
#        123035
#        131552
#        141072
#        162305
#        173117
#        185775
#        197337
#        209787
#        220432
#        231347
#        253045
#
# Disc length: 3597 seconds
#
# Revision: 0
# Processed by: cddbd v1.4PL0 Copyright (c) Steve Scherf et al.
# Submitted via: ExactAudioCopy v0.90b4
#
DISCID=230e0b13
DTITLE=Skip James - Studio Sessions: Rare and Unreleased
DYEAR=2003
DGENRE=Bentonia Blues
TTITLE0=Backwater Blues
TTITLE1=Everybody Ought To Live Right
TTITLE2=I Want To Be More Like Jesus
TTITLE3=Jack Of Diamonds
TTITLE4=My Last Boogie
TTITLE5=Lazy Bones
TTITLE6=Let My Jesus Lead You
TTITLE7=My Own Blues
TTITLE8=Oh, Mary Don't You Weep
TTITLE9=Omaha Blues
TTITLE10=Bumble Bee
TTITLE11=One Dime Was All I Had
TTITLE12=Keep Your Lamp Trimmed And Burning
TTITLE13=Somebody Gonna Wish They Had Religion
TTITLE14=Somebody Loves You
TTITLE15=Sorry For To Leave You
TTITLE16=Sporting Life Blues
TTITLE17=They Are Waiting For Me
TTITLE18=Walking The Sea
EXTD=
EXTT0=
EXTT1=
EXTT2=
EXTT3=
EXTT4=
EXTT5=
EXTT6=
EXTT7=
EXTT8=
EXTT9=
EXTT10=
EXTT11=
EXTT12=
EXTT13=
EXTT14=
EXTT15=
EXTT16=
EXTT17=
EXTT18=
PLAYORDER=
